<?xml version="1.0" encoding="UTF-8" standalone="no"?>
<!-- Created with Inkscape (http://www.inkscape.org/) -->

<svg
   width="100mm"
   height="100mm"
   viewBox="0 0 100 100"
   version="1.1"
   id="svg1"
   xml:space="preserve"
   inkscape:version="1.3 (0e150ed6c4, 2023-07-21)"
   sodipodi:docname="merge.svg"
   xmlns:inkscape="http://www.inkscape.org/namespaces/inkscape"
   xmlns:sodipodi="http://sodipodi.sourceforge.net/DTD/sodipodi-0.dtd"
   xmlns="http://www.w3.org/2000/svg"
   xmlns:svg="http://www.w3.org/2000/svg"><sodipodi:namedview
     id="namedview1"
     pagecolor="#ffffff"
     bordercolor="#000000"
     borderopacity="0.25"
     inkscape:showpageshadow="2"
     inkscape:pageopacity="0.0"
     inkscape:pagecheckerboard="0"
     inkscape:deskcolor="#d1d1d1"
     inkscape:document-units="mm"
     inkscape:zoom="0.96033951"
     inkscape:cx="141.61658"
     inkscape:cy="215.02812"
     inkscape:window-width="1366"
     inkscape:window-height="715"
     inkscape:window-x="-8"
     inkscape:window-y="-8"
     inkscape:window-maximized="1"
     inkscape:current-layer="layer1" /><defs
     id="defs1" /><g
     inkscape:label="Layer 1"
     inkscape:groupmode="layer"
     id="layer1"><circle
       style="fill:#ffcc33;fill-opacity:1;stroke-width:30;paint-order:markers stroke fill"
       id="path3"
       cx="50"
       cy="50"
       r="34.025509" /><g
       style="fill:#000000"
       id="g3"
       transform="matrix(0.23660675,0,0,0.23660675,18.413346,19.715165)"><path
         d="M 104,56 A 24,24 0 1 1 80,32 24,24 0 0 1 104,56 Z"
         opacity="0.2"
         id="path1" /><path
         d="m 208,112 a 32.06,32.06 0 0 0 -31,24 H 152 A 40.19,40.19 0 0 1 120,120 L 93.69,84.92 A 32,32 0 1 0 72,87 v 82 a 32,32 0 1 0 16,0 v -65 l 19.2,25.6 A 56.26,56.26 0 0 0 152,152 h 25 a 32,32 0 1 0 31,-40 z M 64,56 A 16,16 0 1 1 80,72 16,16 0 0 1 64,56 Z m 32,144 a 16,16 0 1 1 -16,-16 16,16 0 0 1 16,16 z m 112,-40 a 16,16 0 1 1 16,-16 16,16 0 0 1 -16,16 z"
         id="path2-8" /></g></g></svg>
