<?xml version="1.0" encoding="UTF-8" standalone="no"?>
<!-- Created with Inkscape (http://www.inkscape.org/) -->

<svg
   width="100mm"
   height="100mm"
   viewBox="0 0 100 100"
   version="1.1"
   id="svg1"
   xml:space="preserve"
   inkscape:version="1.3 (0e150ed6c4, 2023-07-21)"
   sodipodi:docname="portable.svg"
   xmlns:inkscape="http://www.inkscape.org/namespaces/inkscape"
   xmlns:sodipodi="http://sodipodi.sourceforge.net/DTD/sodipodi-0.dtd"
   xmlns="http://www.w3.org/2000/svg"
   xmlns:svg="http://www.w3.org/2000/svg"><sodipodi:namedview
     id="namedview1"
     pagecolor="#ffffff"
     bordercolor="#000000"
     borderopacity="0.25"
     inkscape:showpageshadow="2"
     inkscape:pageopacity="0.0"
     inkscape:pagecheckerboard="0"
     inkscape:deskcolor="#d1d1d1"
     inkscape:document-units="mm"
     inkscape:zoom="0.96033951"
     inkscape:cx="141.61658"
     inkscape:cy="213.98682"
     inkscape:window-width="1366"
     inkscape:window-height="715"
     inkscape:window-x="-8"
     inkscape:window-y="-8"
     inkscape:window-maximized="1"
     inkscape:current-layer="layer1" /><defs
     id="defs1" /><g
     inkscape:label="Layer 1"
     inkscape:groupmode="layer"
     id="layer1"><circle
       style="fill:#ffcc33;fill-opacity:1;stroke-width:30;paint-order:markers stroke fill"
       id="path3"
       cx="50"
       cy="50"
       r="34.025509" /><g
       style="fill:#000000"
       id="g4"
       transform="matrix(0.21610652,0,0,0.21610652,21.589654,22.066311)"><path
         d="m 208,200 a 32,32 0 1 1 -32,-32 32,32 0 0 1 32,32 z M 176,88 a 32,32 0 1 0 -32,-32 32,32 0 0 0 32,32 z"
         opacity="0.2"
         id="path1-7" /><path
         d="m 176,160 a 39.89,39.89 0 0 0 -28.62,12.09 l -46.1,-29.63 a 39.8,39.8 0 0 0 0,-28.92 l 46.1,-29.63 a 40,40 0 1 0 -8.66,-13.45 l -46.1,29.63 a 40,40 0 1 0 0,55.82 l 46.1,29.63 A 40,40 0 1 0 176,160 Z M 176,32 A 24,24 0 1 1 152,56 24,24 0 0 1 176,32 Z M 64,152 a 24,24 0 1 1 24,-24 24,24 0 0 1 -24,24 z m 112,72 a 24,24 0 1 1 24,-24 24,24 0 0 1 -24,24 z"
         id="path2" /></g></g></svg>
